<svg width="453" height="479" viewBox="0 0 453 479" fill="none" xmlns="http://www.w3.org/2000/svg">
<g opacity="0.7">
<path d="M237.195 318.118H210.116V0H237.195V318.118Z" fill="#F2F2F2"/>
<path d="M249.184 314.811H244.429V19.8437H249.184V314.811Z" fill="#F2F2F2"/>
<path d="M203.709 314.811H198.954V19.8437H203.709V314.811Z" fill="#F2F2F2"/>
<path d="M246.703 36.7934H201.228V34.5197H246.703V36.7934Z" fill="#F2F2F2"/>
<path d="M246.703 62.8382H201.228V60.5644H246.703V62.8382Z" fill="#F2F2F2"/>
<path d="M246.703 88.883H201.228V86.6093H246.703V88.883Z" fill="#F2F2F2"/>
<path d="M246.703 115.134H201.228V112.654H246.703V115.134Z" fill="#515474"/>
<path d="M246.703 141.179H201.228V138.905H246.703V141.179Z" fill="#515474"/>
<path d="M246.703 167.224H201.228V164.95H246.703V167.224Z" fill="#515474"/>
<path d="M246.703 193.269H201.228V190.995H246.703V193.269Z" fill="#515474"/>
<path d="M246.703 219.52H201.228V217.04H246.703V219.52Z" fill="#515474"/>
<path d="M246.703 245.565H201.228V243.291H246.703V245.565Z" fill="#515474"/>
<path d="M246.703 271.61H201.228V269.336H246.703V271.61Z" fill="#515474"/>
</g>
<path d="M258.279 324.526H189.859V177.766H258.279V324.526Z" fill="#FFE7C2"/>
<path d="M306.234 478.521H146.658V266.235L306.234 336.101V478.521Z" fill="#F2F2F2"/>
<path d="M247.323 478.521H205.362V427.878H247.323V478.521Z" fill="#515474"/>
<path d="M189.859 374.962H159.474V343.956H189.859V374.962Z" fill="#A2C7D0"/>
<path d="M223.966 374.962H193.58V343.956H223.966V374.962Z" fill="#A2C7D0"/>
<path d="M258.279 374.962H227.893V343.956H258.279V374.962Z" fill="#A2C7D0"/>
<path d="M292.385 374.962H261.999V343.956H292.385V374.962Z" fill="#A2C7D0"/>
<path d="M189.859 409.895H159.474V378.683H189.859V409.895Z" fill="#A2C7D0"/>
<path d="M223.966 409.895H193.58V378.683H223.966V409.895Z" fill="#A2C7D0"/>
<path d="M258.279 409.895H227.893V378.683H258.279V409.895Z" fill="#A2C7D0"/>
<path d="M292.385 409.895H261.999V378.683H292.385V409.895Z" fill="#A2C7D0"/>
<g style="mix-blend-mode:multiply" opacity="0.5">
<path d="M306.234 336.101V478.521H146.658V425.811L257.659 314.811L306.234 336.101Z" fill="#F2F2F2"/>
</g>
<g opacity="0.7">
<path d="M390.573 337.683H367.115V59.9731H390.573V337.683Z" fill="#F2F2F2"/>
<path d="M401.039 334.796H396.889V77.2962H401.039V334.796Z" fill="#F2F2F2"/>
<path d="M361.34 334.796H357.19V77.2962H361.34V334.796Z" fill="#F2F2F2"/>
<path d="M398.874 92.0929H359.175V90.108H398.874V92.0929Z" fill="#F2F2F2"/>
<path d="M398.874 114.829H359.175V112.844H398.874V114.829Z" fill="#F2F2F2"/>
<path d="M398.874 137.566H359.175V135.581H398.874V137.566Z" fill="#F2F2F2"/>
<path d="M398.874 160.483H359.175V158.317H398.874V160.483Z" fill="#515474"/>
<path d="M398.874 183.219H359.175V181.234H398.874V183.219Z" fill="#515474"/>
<path d="M398.874 205.956H359.175V203.971H398.874V205.956Z" fill="#515474"/>
<path d="M398.874 228.692H359.175V226.707H398.874V228.692Z" fill="#515474"/>
<path d="M398.874 251.609H359.175V249.444H398.874V251.609Z" fill="#515474"/>
<path d="M398.874 274.346H359.175V272.361H398.874V274.346Z" fill="#515474"/>
<path d="M398.874 297.082H359.175V295.097H398.874V297.082Z" fill="#515474"/>
</g>
<path d="M408.979 343.277H349.25V215.158H408.979V343.277Z" fill="#FFE7C2"/>
<path d="M452.106 477.71H312.8V292.39L452.106 353.382V477.71Z" fill="#F2F2F2"/>
<path d="M400.678 477.711H364.047V433.501H400.678V477.711Z" fill="#515474"/>
<path d="M350.514 387.306H323.988V360.239H350.514V387.306Z" fill="#A2C7D0"/>
<path d="M380.288 387.306H353.762V360.239H380.288V387.306Z" fill="#A2C7D0"/>
<path d="M410.061 387.306H383.536V360.239H410.061V387.306Z" fill="#A2C7D0"/>
<path d="M440.016 387.306H413.49V360.239H440.016V387.306Z" fill="#A2C7D0"/>
<path d="M350.514 417.802H323.988V390.554H350.514V417.802Z" fill="#A2C7D0"/>
<path d="M380.288 417.802H353.762V390.554H380.288V417.802Z" fill="#A2C7D0"/>
<path d="M410.061 417.802H383.536V390.554H410.061V417.802Z" fill="#A2C7D0"/>
<path d="M440.016 417.802H413.49V390.554H440.016V417.802Z" fill="#A2C7D0"/>
<path opacity="0.4" d="M440.016 360.239V387.306H413.49V360.239H440.016Z" fill="white"/>
<path opacity="0.4" d="M440.016 390.554V417.802H413.49V390.554H440.016Z" fill="white"/>
<g style="mix-blend-mode:multiply" opacity="0.5">
<path d="M400.678 433.501V477.711H390.393V443.786H364.047V433.501H400.678Z" fill="#809C94"/>
</g>
<g opacity="0.7">
<path d="M78.5507 337.683H55.0925V59.9731H78.5507V337.683Z" fill="#F2F2F2"/>
<path d="M89.0167 334.796H84.8664V77.2962H89.0167V334.796Z" fill="#F2F2F2"/>
<path d="M49.3182 334.796H45.1678V77.2962H49.3182V334.796Z" fill="#F2F2F2"/>
<path d="M86.8513 92.0929H47.1528V90.108H86.8513V92.0929Z" fill="#F2F2F2"/>
<path d="M86.8513 114.829H47.1528V112.844H86.8513V114.829Z" fill="#F2F2F2"/>
<path d="M86.8513 137.566H47.1528V135.581H86.8513V137.566Z" fill="#F2F2F2"/>
<path d="M86.8513 160.483H47.1528V158.317H86.8513V160.483Z" fill="#515474"/>
<path d="M86.8513 183.219H47.1528V181.234H86.8513V183.219Z" fill="#515474"/>
<path d="M86.8513 205.956H47.1528V203.971H86.8513V205.956Z" fill="#515474"/>
<path d="M86.8513 228.692H47.1528V226.707H86.8513V228.692Z" fill="#515474"/>
<path d="M86.8513 251.609H47.1528V249.444H86.8513V251.609Z" fill="#515474"/>
<path d="M86.8513 274.346H47.1528V272.361H86.8513V274.346Z" fill="#515474"/>
<path d="M86.8513 297.082H47.1528V295.097H86.8513V297.082Z" fill="#515474"/>
</g>
<path d="M96.9564 343.277H37.2281V215.158H96.9564V343.277Z" fill="#FFE7C2"/>
<path d="M140.084 477.71H0.777618V292.39L140.084 353.382V477.71Z" fill="#F2F2F2"/>
<path d="M88.6558 477.711H52.0248V433.501H88.6558V477.711Z" fill="#515474"/>
<path d="M38.4912 387.306H11.9653V360.239H38.4912V387.306Z" fill="#A2C7D0"/>
<path d="M68.2652 387.306H41.7393V360.239H68.2652V387.306Z" fill="#A2C7D0"/>
<path d="M98.0391 387.306H71.5132V360.239H98.0391V387.306Z" fill="#A2C7D0"/>
<path d="M127.994 387.306H101.468V360.239H127.994V387.306Z" fill="#A2C7D0"/>
<path d="M38.4912 417.802H11.9653V390.554H38.4912V417.802Z" fill="#A2C7D0"/>
<path d="M68.2652 417.802H41.7393V390.554H68.2652V417.802Z" fill="#A2C7D0"/>
<path d="M98.0391 417.802H71.5132V390.554H98.0391V417.802Z" fill="#A2C7D0"/>
<path d="M127.994 417.802H101.468V390.554H127.994V417.802Z" fill="#A2C7D0"/>
<path opacity="0.4" d="M127.994 360.239V387.306H101.468V360.239H127.994Z" fill="white"/>
<path opacity="0.4" d="M127.994 390.554V417.802H101.468V390.554H127.994Z" fill="white"/>
<g style="mix-blend-mode:multiply" opacity="0.5">
<path d="M88.6558 433.501V477.711H78.3703V443.786H52.0248V433.501H88.6558Z" fill="#809C94"/>
</g>
</svg>
