<svg width="201" height="207" viewBox="0 0 201 207" fill="none" xmlns="http://www.w3.org/2000/svg">
<g opacity="0.7">
<path d="M105.974 137.613H94.2604V0H105.974V137.613Z" fill="#2A2B47"/>
<path d="M111.16 136.182H109.104V8.58405H111.16V136.182Z" fill="#2A2B47"/>
<path d="M91.4885 136.182H89.4319V8.58405H91.4885V136.182Z" fill="#2A2B47"/>
<path d="M110.087 15.9162H90.4155V14.9326H110.087V15.9162Z" fill="#2A2B47"/>
<path d="M110.087 27.1827H90.4155V26.1992H110.087V27.1827Z" fill="#2A2B47"/>
<path d="M110.087 38.4493H90.4155V37.4657H110.087V38.4493Z" fill="#2A2B47"/>
<path d="M110.087 49.8052H90.4155V48.7322H110.087V49.8052Z" fill="#515474"/>
<path d="M110.087 61.0717H90.4155V60.0881H110.087V61.0717Z" fill="#515474"/>
<path d="M110.087 72.3382H90.4155V71.3546H110.087V72.3382Z" fill="#515474"/>
<path d="M110.087 83.6048H90.4155V82.6212H110.087V83.6048Z" fill="#515474"/>
<path d="M110.087 94.9607H90.4155V93.8877H110.087V94.9607Z" fill="#515474"/>
<path d="M110.087 106.227H90.4155V105.244H110.087V106.227Z" fill="#515474"/>
<path d="M110.087 117.494H90.4155V116.51H110.087V117.494Z" fill="#515474"/>
</g>
<path d="M115 140H86V76H115V140Z" fill="#FFE7C2"/>
<path d="M136 207H67V114L136 144.608V207Z" fill="#2A2B47"/>
<path d="M110 207H92V186H110V207Z" fill="#515474"/>
<path d="M86 163H72V148H86V163Z" fill="#A2C7D0"/>
<path d="M100 163H87V148H100V163Z" fill="#A2C7D0"/>
<path d="M115 163H102V148H115V163Z" fill="#A2C7D0"/>
<path d="M129 163H116V148H129V163Z" fill="#A2C7D0"/>
<path d="M86 178H72V164H86V178Z" fill="#A2C7D0"/>
<path d="M100 178H87V164H100V178Z" fill="#A2C7D0"/>
<path d="M115 178H102V164H115V178Z" fill="#A2C7D0"/>
<path d="M129 178H116V164H129V178Z" fill="#A2C7D0"/>
<g opacity="0.7">
<path d="M33.3256 147.669H23.3096V30H33.3256V147.669Z" fill="#2A2B47"/>
<path d="M37.7601 146.445H36.0016V37.34H37.7601V146.445Z" fill="#2A2B47"/>
<path d="M20.9394 146.445H19.1809V37.34H20.9394V146.445Z" fill="#2A2B47"/>
<path d="M36.8427 43.6095H20.022V42.7685H36.8427V43.6095Z" fill="#2A2B47"/>
<path d="M36.8427 53.2432H20.022V52.4022H36.8427V53.2432Z" fill="#2A2B47"/>
<path d="M36.8427 62.8769H20.022V62.0359H36.8427V62.8769Z" fill="#2A2B47"/>
<path d="M36.8427 72.5871H20.022V71.6696H36.8427V72.5871Z" fill="#515474"/>
<path d="M36.8427 82.2207H20.022V81.3797H36.8427V82.2207Z" fill="#515474"/>
<path d="M36.8427 91.8544H20.022V91.0134H36.8427V91.8544Z" fill="#515474"/>
<path d="M36.8427 101.488H20.022V100.647H36.8427V101.488Z" fill="#515474"/>
<path d="M36.8427 111.198H20.022V110.281H36.8427V111.198Z" fill="#515474"/>
<path d="M36.8427 120.832H20.022V119.991H36.8427V120.832Z" fill="#515474"/>
<path d="M36.8427 130.466H20.022V129.625H36.8427V130.466Z" fill="#515474"/>
</g>
<path d="M41 150H16V95H41V150Z" fill="#FFE7C2"/>
<path d="M59 207H0V128L59 154V207Z" fill="#2A2B47"/>
<path d="M37 207H21V189H37V207Z" fill="#515474"/>
<path d="M16 169H4V157H16V169Z" fill="#A2C7D0"/>
<path d="M28 169H17V157H28V169Z" fill="#A2C7D0"/>
<path d="M41 169H30V157H41V169Z" fill="#A2C7D0"/>
<path d="M53 169H42V157H53V169Z" fill="#A2C7D0"/>
<path d="M16 182H4V170H16V182Z" fill="#A2C7D0"/>
<path d="M28 182H17V170H28V182Z" fill="#A2C7D0"/>
<path d="M41 182H30V170H41V182Z" fill="#A2C7D0"/>
<path d="M53 182H42V170H53V182Z" fill="#A2C7D0"/>
<g style="mix-blend-mode:multiply" opacity="0.5">
<path d="M59 153.933V207H0V187.36L41.0401 146L59 153.933Z" fill="#F2F2F2"/>
</g>
<g opacity="0.7">
<path d="M175.326 147.669H165.31V30H175.326V147.669Z" fill="#2A2B47"/>
<path d="M179.76 146.445H178.002V37.34H179.76V146.445Z" fill="#2A2B47"/>
<path d="M162.939 146.445H161.181V37.34H162.939V146.445Z" fill="#2A2B47"/>
<path d="M178.843 43.6095H162.022V42.7685H178.843V43.6095Z" fill="#2A2B47"/>
<path d="M178.843 53.2432H162.022V52.4022H178.843V53.2432Z" fill="#2A2B47"/>
<path d="M178.843 62.8769H162.022V62.0359H178.843V62.8769Z" fill="#2A2B47"/>
<path d="M178.843 72.5871H162.022V71.6696H178.843V72.5871Z" fill="#515474"/>
<path d="M178.843 82.2207H162.022V81.3797H178.843V82.2207Z" fill="#515474"/>
<path d="M178.843 91.8544H162.022V91.0134H178.843V91.8544Z" fill="#515474"/>
<path d="M178.843 101.488H162.022V100.647H178.843V101.488Z" fill="#515474"/>
<path d="M178.843 111.198H162.022V110.281H178.843V111.198Z" fill="#515474"/>
<path d="M178.843 120.832H162.022V119.991H178.843V120.832Z" fill="#515474"/>
<path d="M178.843 130.466H162.022V129.625H178.843V130.466Z" fill="#515474"/>
</g>
<path d="M183 150H158V95H183V150Z" fill="#FFE7C2"/>
<path d="M201 207H142V128L201 154V207Z" fill="#2A2B47"/>
<path d="M179 207H163V189H179V207Z" fill="#515474"/>
<path d="M158 169H146V157H158V169Z" fill="#A2C7D0"/>
<path d="M170 169H159V157H170V169Z" fill="#A2C7D0"/>
<path d="M183 169H172V157H183V169Z" fill="#A2C7D0"/>
<path d="M195 169H184V157H195V169Z" fill="#A2C7D0"/>
<path d="M158 182H146V170H158V182Z" fill="#A2C7D0"/>
<path d="M170 182H159V170H170V182Z" fill="#A2C7D0"/>
<path d="M183 182H172V170H183V182Z" fill="#A2C7D0"/>
<path d="M195 182H184V170H195V182Z" fill="#A2C7D0"/>
<g style="mix-blend-mode:multiply" opacity="0.5">
<path d="M201 153.933V207H142V187.36L183.04 146L201 153.933Z" fill="#F2F2F2"/>
</g>
<g style="mix-blend-mode:multiply" opacity="0.5">
<path d="M136 145.234V207H67V184.14L114.996 136L136 145.234Z" fill="#F2F2F2"/>
</g>
</svg>
